<?xml version="1.0" encoding="UTF-8" standalone="no"?>
<svg width="324px" height="487px" viewBox="0 0 324 487" version="1.1" xmlns="http://www.w3.org/2000/svg" xmlns:xlink="http://www.w3.org/1999/xlink" xmlns:sketch="http://www.bohemiancoding.com/sketch/ns">
    <!-- Generator: Sketch 3.2 (9961) - http://www.bohemiancoding.com/sketch -->
    <title>Group 2</title>
    <desc>Created with Sketch.</desc>
    <defs></defs>
    <g id="Page-1" stroke="none" stroke-width="1" fill="none" fill-rule="evenodd" sketch:type="MSPage">
        <g id="Group-2" sketch:type="MSLayerGroup" fill="#DF2C2C">
            <path d="M0,334.875 C0,340.469063 4.536,345 10.125,345 L91.125,345 C96.714,345 101.25,340.469063 101.25,334.875 L101.25,294.375 C101.25,288.780937 96.714,284.25 91.125,284.25 L10.125,284.25 C4.536,284.25 0,288.780937 0,294.375 L0,334.875 Z" id="Fill-6635" sketch:type="MSShapeGroup"></path>
            <path d="M0,476.375 C0,481.969063 4.536,486.5 10.125,486.5 L91.125,486.5 C96.714,486.5 101.25,481.969063 101.25,476.375 L101.25,435.875 C101.25,430.280937 96.714,425.75 91.125,425.75 L10.125,425.75 C4.536,425.75 0,430.280937 0,435.875 L0,476.375 Z" id="Fill-6635" sketch:type="MSShapeGroup"></path>
            <path d="M0,51.5 C0,57.0940625 4.536,61.625 10.125,61.625 L91.125,61.625 C96.714,61.625 101.25,57.0940625 101.25,51.5 L101.25,11 C101.25,5.4059375 96.714,0.875 91.125,0.875 L10.125,0.875 C4.536,0.875 0,5.4059375 0,11 L0,51.5 Z" id="Fill-6635" sketch:type="MSShapeGroup"></path>
            <path d="M60.75,223.5 L60.75,264 C60.75,269.56875 56.19375,274.125 50.625,274.125 L0,274.125 L0,213.375 L50.625,213.375 C56.19375,213.375 60.75,217.93125 60.75,223.5" id="Fill-6636" sketch:type="MSShapeGroup"></path>
            <path d="M60.75,365.125 L60.75,405.625 C60.75,411.19375 56.19375,415.75 50.625,415.75 L0,415.75 L0,355 L50.625,355 C56.19375,355 60.75,359.55625 60.75,365.125" id="Fill-6636" sketch:type="MSShapeGroup"></path>
            <path d="M70.875,264 C70.875,269.594063 75.411,274.125 81,274.125 L162,274.125 C167.589,274.125 172.125,269.594063 172.125,264 L172.125,223.5 C172.125,217.905937 167.589,213.375 162,213.375 L81,213.375 C75.411,213.375 70.875,217.905937 70.875,223.5 L70.875,264 Z" id="Fill-6637" sketch:type="MSShapeGroup"></path>
            <path d="M70.875,405.625 C70.875,411.219063 75.411,415.75 81,415.75 L162,415.75 C167.589,415.75 172.125,411.219063 172.125,405.625 L172.125,365.125 C172.125,359.530937 167.589,355 162,355 L81,355 C75.411,355 70.875,359.530937 70.875,365.125 L70.875,405.625 Z" id="Fill-6637" sketch:type="MSShapeGroup"></path>
            <path d="M60.75,81.75 L60.75,122.25 C60.75,127.81875 56.19375,132.375 50.625,132.375 L0,132.375 L0,71.625 L50.625,71.625 C56.19375,71.625 60.75,76.18125 60.75,81.75" id="Fill-6638" sketch:type="MSShapeGroup"></path>
            <path d="M324,81.75 L324,122.25 C324,127.81875 321.721875,132.375 318.9375,132.375 L293.625,132.375 L293.625,71.625 L318.9375,71.625 C321.721875,71.625 324,76.18125 324,81.75" id="Fill-6638" sketch:type="MSShapeGroup" transform="translate(308.812500, 102.000000) rotate(-180.000000) translate(-308.812500, -102.000000) "></path>
            <path d="M324,223.5 L324,264 C324,269.56875 321.721875,274.125 318.9375,274.125 L293.625,274.125 L293.625,213.375 L318.9375,213.375 C321.721875,213.375 324,217.93125 324,223.5" id="Fill-6638" sketch:type="MSShapeGroup" transform="translate(308.812500, 243.750000) rotate(-180.000000) translate(-308.812500, -243.750000) "></path>
            <path d="M324,365.125 L324,405.625 C324,411.19375 321.721875,415.75 318.9375,415.75 L293.625,415.75 L293.625,355 L318.9375,355 C321.721875,355 324,359.55625 324,365.125" id="Fill-6638" sketch:type="MSShapeGroup" transform="translate(308.812500, 385.375000) rotate(-180.000000) translate(-308.812500, -385.375000) "></path>
            <path d="M70.875,122.25 C70.875,127.844063 75.411,132.375 81,132.375 L162,132.375 C167.589,132.375 172.125,127.844063 172.125,122.25 L172.125,81.75 C172.125,76.1559375 167.589,71.625 162,71.625 L81,71.625 C75.411,71.625 70.875,76.1559375 70.875,81.75 L70.875,122.25 Z" id="Fill-6639" sketch:type="MSShapeGroup"></path>
            <path d="M182.25,122.25 C182.25,127.844063 186.786,132.375 192.375,132.375 L273.375,132.375 C278.964,132.375 283.5,127.844063 283.5,122.25 L283.5,81.75 C283.5,76.1559375 278.964,71.625 273.375,71.625 L192.375,71.625 C186.786,71.625 182.25,76.1559375 182.25,81.75 L182.25,122.25 Z" id="Fill-6639" sketch:type="MSShapeGroup"></path>
            <path d="M182.25,264 C182.25,269.594063 186.786,274.125 192.375,274.125 L273.375,274.125 C278.964,274.125 283.5,269.594063 283.5,264 L283.5,223.5 C283.5,217.905937 278.964,213.375 273.375,213.375 L192.375,213.375 C186.786,213.375 182.25,217.905937 182.25,223.5 L182.25,264 Z" id="Fill-6640" sketch:type="MSShapeGroup"></path>
            <path d="M182.25,405.625 C182.25,411.219063 186.786,415.75 192.375,415.75 L273.375,415.75 C278.964,415.75 283.5,411.219063 283.5,405.625 L283.5,365.125 C283.5,359.530937 278.964,355 273.375,355 L192.375,355 C186.786,355 182.25,359.530937 182.25,365.125 L182.25,405.625 Z" id="Fill-6640" sketch:type="MSShapeGroup"></path>
            <path d="M111.375,334.875 C111.375,340.469063 115.911,345 121.5,345 L202.5,345 C208.089,345 212.625,340.469063 212.625,334.875 L212.625,294.375 C212.625,288.780937 208.089,284.25 202.5,284.25 L121.5,284.25 C115.911,284.25 111.375,288.780937 111.375,294.375 L111.375,334.875 Z" id="Fill-6641" sketch:type="MSShapeGroup"></path>
            <path d="M111.375,476.375 C111.375,481.969063 115.911,486.5 121.5,486.5 L202.5,486.5 C208.089,486.5 212.625,481.969063 212.625,476.375 L212.625,435.875 C212.625,430.280937 208.089,425.75 202.5,425.75 L121.5,425.75 C115.911,425.75 111.375,430.280937 111.375,435.875 L111.375,476.375 Z" id="Fill-6641" sketch:type="MSShapeGroup"></path>
            <path d="M111.375,51.5 C111.375,57.0940625 115.911,61.625 121.5,61.625 L202.5,61.625 C208.089,61.625 212.625,57.0940625 212.625,51.5 L212.625,11 C212.625,5.4059375 208.089,0.875 202.5,0.875 L121.5,0.875 C115.911,0.875 111.375,5.4059375 111.375,11 L111.375,51.5 Z" id="Fill-6641" sketch:type="MSShapeGroup"></path>
            <path d="M0,193.125 C0,198.719063 4.536,203.25 10.125,203.25 L91.125,203.25 C96.714,203.25 101.25,198.719063 101.25,193.125 L101.25,152.625 C101.25,147.030937 96.714,142.5 91.125,142.5 L10.125,142.5 C4.536,142.5 0,147.030937 0,152.625 L0,193.125 Z" id="Fill-6642" sketch:type="MSShapeGroup"></path>
            <path d="M111.375,193.125 C111.375,198.719063 115.911,203.25 121.5,203.25 L202.5,203.25 C208.089,203.25 212.625,198.719063 212.625,193.125 L212.625,152.625 C212.625,147.030937 208.089,142.5 202.5,142.5 L121.5,142.5 C115.911,142.5 111.375,147.030937 111.375,152.625 L111.375,193.125 Z" id="Fill-6642" sketch:type="MSShapeGroup"></path>
            <path d="M222.75,193.125 C222.75,198.719063 227.286,203.25 232.875,203.25 L313.875,203.25 C319.464,203.25 324,198.719063 324,193.125 L324,152.625 C324,147.030937 319.464,142.5 313.875,142.5 L232.875,142.5 C227.286,142.5 222.75,147.030937 222.75,152.625 L222.75,193.125 Z" id="Fill-6642" sketch:type="MSShapeGroup"></path>
            <path d="M222.75,334.875 C222.75,340.469063 227.286,345 232.875,345 L313.875,345 C319.464,345 324,340.469063 324,334.875 L324,294.375 C324,288.780937 319.464,284.25 313.875,284.25 L232.875,284.25 C227.286,284.25 222.75,288.780937 222.75,294.375 L222.75,334.875 Z" id="Fill-6644" sketch:type="MSShapeGroup"></path>
            <path d="M222.75,476.375 C222.75,481.969063 227.286,486.5 232.875,486.5 L313.875,486.5 C319.464,486.5 324,481.969063 324,476.375 L324,435.875 C324,430.280937 319.464,425.75 313.875,425.75 L232.875,425.75 C227.286,425.75 222.75,430.280937 222.75,435.875 L222.75,476.375 Z" id="Fill-6644" sketch:type="MSShapeGroup"></path>
            <path d="M222.75,51.5 C222.75,57.0940625 227.286,61.625 232.875,61.625 L313.875,61.625 C319.464,61.625 324,57.0940625 324,51.5 L324,11 C324,5.4059375 319.464,0.875 313.875,0.875 L232.875,0.875 C227.286,0.875 222.75,5.4059375 222.75,11 L222.75,51.5 Z" id="Fill-6644" sketch:type="MSShapeGroup"></path>
        </g>
    </g>
</svg>