<?xml version="1.0" encoding="UTF-8" standalone="no"?>
<svg width="324px" height="324px" viewBox="0 0 324 324" version="1.1" xmlns="http://www.w3.org/2000/svg" xmlns:xlink="http://www.w3.org/1999/xlink" xmlns:sketch="http://www.bohemiancoding.com/sketch/ns">
    <!-- Generator: Sketch 3.2 (9961) - http://www.bohemiancoding.com/sketch -->
    <title>Group 7</title>
    <desc>Created with Sketch.</desc>
    <defs></defs>
    <g id="Page-1" stroke="none" stroke-width="1" fill="none" fill-rule="evenodd" sketch:type="MSPage">
        <g id="Group-7" sketch:type="MSLayerGroup">
            <path d="M324,101.25 C324,157.170375 278.670375,202.5 222.75,202.5 C166.829625,202.5 121.5,157.170375 121.5,101.25 C121.5,45.329625 166.829625,0 222.75,0 C278.670375,0 324,45.329625 324,101.25" id="Fill-4359" fill="#EDBC7C" sketch:type="MSShapeGroup"></path>
            <path d="M291.169181,26.768475 C273.141619,10.1989125 249.165619,-0.002025 222.749494,-0.002025 C166.829119,-0.002025 121.499494,45.3326625 121.499494,101.247975 C121.499494,127.6641 131.700431,151.6401 148.269994,169.667662 L291.169181,26.768475 Z" id="Fill-4360" fill="#F4D0A1" sketch:type="MSShapeGroup"></path>
            <path d="M202.5,222.75 C202.5,278.690625 157.190625,324 101.25,324 C45.309375,324 0,278.690625 0,222.75 C0,166.809375 45.309375,121.5 101.25,121.5 C112.033125,121.5 122.41125,123.170625 132.13125,126.309375 C131.776875,128.030625 131.625,129.8025 131.625,131.625 C131.625,146.30625 143.015625,158.355 157.44375,159.3675 C157.089375,161.038125 156.9375,162.759375 156.9375,164.53125 C156.9375,179.11125 168.125625,191.05875 182.401875,192.223125 C182.300625,193.08375 182.25,193.995 182.25,194.90625 C182.25,206.600625 191.008125,216.219375 202.348125,217.535625 C202.449375,219.256875 202.5,221.02875 202.5,222.75" id="Fill-4361" fill="#84462D" sketch:type="MSShapeGroup"></path>
            <path d="M131.625,131.625 C131.625,129.8025 131.776875,128.030625 132.13125,126.309375 C122.41125,123.170625 112.033125,121.5 101.25,121.5 C45.309375,121.5 0,166.809375 0,222.75 C0,239.729625 4.2271875,255.701813 11.60325,269.755312 L135.57375,145.784813 C133.10325,141.6285 131.625,136.809 131.625,131.625" id="Fill-4362" fill="#9C6144" sketch:type="MSShapeGroup"></path>
            <path d="M202.5,55.6875 C202.5,61.2765 197.964,65.8125 192.375,65.8125 C186.786,65.8125 182.25,61.2765 182.25,55.6875 C182.25,50.0985 186.786,45.5625 192.375,45.5625 C197.964,45.5625 202.5,50.0985 202.5,55.6875" id="Fill-4363" fill="#D4A263" sketch:type="MSShapeGroup"></path>
            <path d="M121.5,217.6875 C121.5,223.2765 116.964,227.8125 111.375,227.8125 C105.786,227.8125 101.25,223.2765 101.25,217.6875 C101.25,212.0985 105.786,207.5625 111.375,207.5625 C116.964,207.5625 121.5,212.0985 121.5,217.6875" id="Fill-4364" fill="#F4D0A1" sketch:type="MSShapeGroup"></path>
            <path d="M141.75,278.4375 C141.75,284.0265 137.214,288.5625 131.625,288.5625 C126.036,288.5625 121.5,284.0265 121.5,278.4375 C121.5,272.8485 126.036,268.3125 131.625,268.3125 C137.214,268.3125 141.75,272.8485 141.75,278.4375" id="Fill-4365" fill="#D4A263" sketch:type="MSShapeGroup"></path>
            <path d="M40.5,232.875 C40.5,238.464 35.964,243 30.375,243 C24.786,243 20.25,238.464 20.25,232.875 C20.25,227.286 24.786,222.75 30.375,222.75 C35.964,222.75 40.5,227.286 40.5,232.875" id="Fill-4366" fill="#F4D0A1" sketch:type="MSShapeGroup"></path>
            <path d="M263.25,35.4375 C263.25,41.0265 258.714,45.5625 253.125,45.5625 C247.536,45.5625 243,41.0265 243,35.4375 C243,29.8485 247.536,25.3125 253.125,25.3125 C258.714,25.3125 263.25,29.8485 263.25,35.4375" id="Fill-4367" fill="#D4A263" sketch:type="MSShapeGroup"></path>
            <path d="M283.5,151.875 C283.5,157.464 278.964,162 273.375,162 C267.786,162 263.25,157.464 263.25,151.875 C263.25,146.286 267.786,141.75 273.375,141.75 C278.964,141.75 283.5,146.286 283.5,151.875" id="Fill-4368" fill="#9C6144" sketch:type="MSShapeGroup"></path>
            <path d="M283.5,86.0625 C283.5,97.2455625 274.433062,106.3125 263.25,106.3125 C252.066938,106.3125 243,97.2455625 243,86.0625 C243,74.8794375 252.066938,65.8125 263.25,65.8125 C274.433062,65.8125 283.5,74.8794375 283.5,86.0625" id="Fill-4369" fill="#9C6144" sketch:type="MSShapeGroup"></path>
            <path d="M202.5,106.3125 C202.5,117.495562 193.433062,126.5625 182.25,126.5625 C171.066938,126.5625 162,117.495562 162,106.3125 C162,95.1294375 171.066938,86.0625 182.25,86.0625 C193.433062,86.0625 202.5,95.1294375 202.5,106.3125" id="Fill-4370" fill="#9C6144" sketch:type="MSShapeGroup"></path>
            <path d="M81,187.3125 C81,198.495562 71.9330625,207.5625 60.75,207.5625 C49.5669375,207.5625 40.5,198.495562 40.5,187.3125 C40.5,176.129438 49.5669375,167.0625 60.75,167.0625 C71.9330625,167.0625 81,176.129438 81,187.3125" id="Fill-4371" fill="#D4A263" sketch:type="MSShapeGroup"></path>
            <path d="M81,268.3125 C81,279.495562 71.9330625,288.5625 60.75,288.5625 C49.5669375,288.5625 40.5,279.495562 40.5,268.3125 C40.5,257.129438 49.5669375,248.0625 60.75,248.0625 C71.9330625,248.0625 81,257.129438 81,268.3125" id="Fill-4372" fill="#F4D0A1" sketch:type="MSShapeGroup"></path>
            <path d="M187.3125,237.9375 C187.3125,249.120562 178.245562,258.1875 167.0625,258.1875 C155.879438,258.1875 146.8125,249.120562 146.8125,237.9375 C146.8125,226.754438 155.879438,217.6875 167.0625,217.6875 C178.245562,217.6875 187.3125,226.754438 187.3125,237.9375" id="Fill-4373" fill="#D4A263" sketch:type="MSShapeGroup"></path>
            <path d="M237.9375,167.0625 C237.9375,175.451063 231.138563,182.25 222.75,182.25 C214.361437,182.25 207.5625,175.451063 207.5625,167.0625 C207.5625,158.673937 214.361437,151.875 222.75,151.875 C231.138563,151.875 237.9375,158.673937 237.9375,167.0625" id="Fill-4374" fill="#D4A263" sketch:type="MSShapeGroup"></path>
        </g>
    </g>
</svg>