<?xml version="1.0" encoding="UTF-8" standalone="no"?>
<svg width="303px" height="324px" viewBox="0 0 303 324" version="1.1" xmlns="http://www.w3.org/2000/svg" xmlns:xlink="http://www.w3.org/1999/xlink" xmlns:sketch="http://www.bohemiancoding.com/sketch/ns">
    <!-- Generator: Sketch 3.2 (9961) - http://www.bohemiancoding.com/sketch -->
    <title>Group</title>
    <desc>Created with Sketch.</desc>
    <defs></defs>
    <g id="Page-1" stroke="none" stroke-width="1" fill="none" fill-rule="evenodd" sketch:type="MSPage">
        <g id="Group" sketch:type="MSLayerGroup">
            <path d="M303,172.8 C303,256.3056 235.171286,324 151.5,324 C67.8287143,324 0,256.3056 0,172.8 C0,89.2944 67.8287143,21.6 151.5,21.6 C235.171286,21.6 303,89.2944 303,172.8" id="Fill-5589" fill="#0484AB" sketch:type="MSShapeGroup"></path>
            <path d="M303,172.8 C303,115.614 271.179589,65.8476 224.252464,40.1544 L186.458625,103.0158 L215.595321,120.4632 L244.732018,97.2 L262.208625,120.4632 L279.690643,120.4632 L279.690643,137.9106 L221.422661,132.0894 L198.113304,166.9842 L186.458625,230.9526 L209.767982,260.0316 L214.44825,310.3218 C266.683286,286.4646 303,233.8848 303,172.8" id="Fill-5590" fill="#17B198" sketch:type="MSShapeGroup"></path>
            <path d="M151.5,21.6 C67.8287143,21.6 0,89.2944 0,172.8 C0,210.6594 13.975875,245.241 37.0146964,271.7658 L250.662161,58.5414 C224.084732,35.5482 189.434518,21.6 151.5,21.6" id="Fill-5591" fill="#21B2D1" sketch:type="MSShapeGroup"></path>
            <path d="M186.460789,103.01526 L198.7377,110.36466 L250.642682,58.56246 C242.537432,51.54786 233.723379,45.34326 224.249218,40.15926 L186.460789,103.01526 Z" id="Fill-5592" fill="#8CE3D4" sketch:type="MSShapeGroup"></path>
            <path d="M116.539211,167.46858 L75.7478357,184.91598 L58.2658179,138.38958 L110.711871,138.38958 L145.675907,91.86858 L145.675907,74.42118 L77.5712464,40.83318 C45.1286036,58.97718 20.0824071,88.67718 7.98946071,124.35498 L34.9618714,184.91598 L69.9259071,213.98958 L116.539211,301.22118 L134.015818,301.22118 L163.152514,213.98958 L116.539211,167.46858 Z" id="Fill-5593" fill="#17B198" sketch:type="MSShapeGroup"></path>
            <path d="M281.357143,172.8 C281.357143,196.6572 238.071429,259.2 238.071429,259.2 C238.071429,259.2 194.785714,196.6572 194.785714,172.8 C194.785714,148.9428 214.166893,129.6 238.071429,129.6 C261.975964,129.6 281.357143,148.9428 281.357143,172.8" id="Fill-5594" fill="#FA5655" sketch:type="MSShapeGroup"></path>
            <path d="M254.303571,172.8 C254.303571,181.7478 247.036982,189 238.071429,189 C229.105875,189 221.839286,181.7478 221.839286,172.8 C221.839286,163.8522 229.105875,156.6 238.071429,156.6 C247.036982,156.6 254.303571,163.8522 254.303571,172.8" id="Fill-5595" fill="#FFFFFF" sketch:type="MSShapeGroup"></path>
            <path d="M116.539211,167.46858 L75.7478357,184.91598 L58.2712286,138.38958 L110.711871,138.38958 L145.675907,91.86858 L145.675907,74.42118 L77.5712464,40.83318 C45.1286036,58.97718 20.0824071,88.67718 7.98946071,124.35498 L34.9618714,184.91598 L69.9259071,213.98958 L78.6101036,230.25438 L129.027139,179.93718 L116.539211,167.46858 Z" id="Fill-5596" fill="#8CE3D4" sketch:type="MSShapeGroup"></path>
            <path d="M108.214286,43.2 C108.214286,67.0572 64.9285714,129.6 64.9285714,129.6 C64.9285714,129.6 21.6428571,67.0572 21.6428571,43.2 C21.6428571,19.3428 41.0240357,0 64.9285714,0 C88.8331071,0 108.214286,19.3428 108.214286,43.2" id="Fill-5597" fill="#FA5655" sketch:type="MSShapeGroup"></path>
            <path d="M81.1607143,43.2 C81.1607143,52.1478 73.894125,59.4 64.9285714,59.4 C55.9630179,59.4 48.6964286,52.1478 48.6964286,43.2 C48.6964286,34.2522 55.9630179,27 64.9285714,27 C73.894125,27 81.1607143,34.2522 81.1607143,43.2" id="Fill-5598" fill="#FFFFFF" sketch:type="MSShapeGroup"></path>
        </g>
    </g>
</svg>