<?xml version="1.0" encoding="UTF-8" standalone="no"?>
<svg width="550px" height="447px" viewBox="0 0 550 447" version="1.1" xmlns="http://www.w3.org/2000/svg" xmlns:xlink="http://www.w3.org/1999/xlink" xmlns:sketch="http://www.bohemiancoding.com/sketch/ns">
    <!-- Generator: Sketch 3.2 (9961) - http://www.bohemiancoding.com/sketch -->
    <title>Group 5</title>
    <desc>Created with Sketch.</desc>
    <defs></defs>
    <g id="Page-1" stroke="none" stroke-width="1" fill="none" fill-rule="evenodd" sketch:type="MSPage">
        <g id="Group-5" sketch:type="MSLayerGroup">
            <path d="M550,137 L52,137 L52,34 L550,34 L550,137 Z" id="Fill-2368" fill="#F0F1F1" sketch:type="MSShapeGroup"></path>
            <path d="M398.187864,82.1433333 C396.589955,84.5526667 393.909591,86 391.040227,86 L279.959773,86 C277.090409,86 274.410045,84.5526667 272.812136,82.1433333 L241,34 L430,34 L398.187864,82.1433333 Z" id="Fill-2369" fill="#CFD3D4" sketch:type="MSShapeGroup"></path>
            <path d="M52,137 L26,137 L26,34 L52,34 L52,137 Z" id="Fill-2370" fill="#FFFFFF" sketch:type="MSShapeGroup"></path>
            <path d="M26,121 L0,121 L0,52 L26,52 L26,121 Z" id="Fill-2371" fill="#E2E4E5" sketch:type="MSShapeGroup"></path>
            <path d="M121,0 L95,0 L69,34 L121,34 L121,0 Z" id="Fill-2372" fill="#FFFFFF" sketch:type="MSShapeGroup"></path>
            <path d="M515.8,17 L464.2,17 L447,34 L533,34 L515.8,17 Z" id="Fill-2373" fill="#FFFFFF" sketch:type="MSShapeGroup"></path>
            <path d="M462,104 L447,104 L447,52 L462,52 L462,104 Z" id="Fill-2374" fill="#CFD3D4" sketch:type="MSShapeGroup"></path>
            <path d="M490,104 L475,104 L475,52 L490,52 L490,104 Z" id="Fill-2375" fill="#CFD3D4" sketch:type="MSShapeGroup"></path>
            <path d="M518,104 L503,104 L503,52 L518,52 L518,104 Z" id="Fill-2376" fill="#CFD3D4" sketch:type="MSShapeGroup"></path>
            <path d="M26,138 L99.1170909,187.088 C101.948485,188.986 105.270424,190 108.669818,190 L168,190 L168,138 L26,138 Z" id="Fill-2377" fill="#CFD3D4" sketch:type="MSShapeGroup"></path>
            <path d="M274.784447,138 C282.906548,169.865863 269.498636,190.146478 249,206.602504 C277.337108,213.788616 296.512142,204.064211 312,187.505282 L274.784447,138 Z" id="Fill-2378" fill="#F0F1F1" sketch:type="MSShapeGroup"></path>
            <path d="M366,219.32 L215.347826,219.32 C203.485043,219.32 193.826087,209.71568 193.826087,197.92 L193.826087,138 L168,138 L168,197.92 C168,223.88248 189.237652,245 215.347826,245 L357.391304,245 L366,219.32 Z" id="Fill-2379" fill="#F0F1F1" sketch:type="MSShapeGroup"></path>
            <path d="M275,138 L550,138 C550,138 465.136719,223.060833 489.84375,258.166667 C508.122656,284.139833 537.934375,387.466 538.364063,429.653083 C538.415625,434.236583 536.628125,438.648417 533.396875,441.9015 C530.165625,445.163167 525.774219,447 521.176563,447 L360.9375,447 C354.810156,447 349.146875,443.738333 346.070312,438.451 C342.99375,433.155083 342.976562,426.63175 346.010156,421.318667 L365.079687,400.890333 C368.405469,397.32825 370.064062,392.521583 369.625781,387.672 C369.196094,382.813833 366.721094,378.37625 362.819531,375.449333 L359.21875,369.75 C351.922656,364.282417 350.169531,354.076833 355.23125,346.49775 L369.101562,323.176833 C374.163281,315.59775 372.41875,305.392167 365.114062,299.924583 L353.658594,291.34125 C347.746094,286.903667 345.33125,279.18725 347.66875,272.174667 L369.53125,206.666667 L326.5625,206.666667 L275,138 Z" id="Fill-2380" fill="#3E3E3F" sketch:type="MSShapeGroup"></path>
        </g>
    </g>
</svg>