<?xml version="1.0" encoding="UTF-8" standalone="no"?>
<svg width="485px" height="488px" viewBox="0 0 485 488" version="1.1" xmlns="http://www.w3.org/2000/svg" xmlns:xlink="http://www.w3.org/1999/xlink" xmlns:sketch="http://www.bohemiancoding.com/sketch/ns">
    <!-- Generator: Sketch 3.2 (9961) - http://www.bohemiancoding.com/sketch -->
    <title>Group 6</title>
    <desc>Created with Sketch.</desc>
    <defs></defs>
    <g id="Page-1" stroke="none" stroke-width="1" fill="none" fill-rule="evenodd" sketch:type="MSPage">
        <g id="Group-6" sketch:type="MSLayerGroup" transform="translate(0.000000, 1.000000)">
            <path d="M484.601918,134.016116 C484.130627,137.629342 481.224337,140.457084 477.611111,140.849826 C459.466434,142.734987 419.878047,139.6716 391.207885,133.544826 L344.550144,156.873697 C334.810144,146.426761 323.027885,137.943535 309.517563,131.581116 L359.788531,109.98031 L402.990144,53.425471 C403.932724,51.9330516 405.503692,50.9119226 407.310305,50.6762774 C409.116918,50.5191806 410.923531,51.1475677 412.180305,52.4043419 C413.751273,53.9753097 414.301111,56.3317613 413.594176,58.4525677 L399.062724,102.125471 C434.016756,66.8572452 459.387885,33.3956323 469.991918,2.84030968 C471.562885,0.640954839 474.233531,-0.615819355 477.061273,-0.458722581 C479.810466,-0.223077419 482.245466,1.42643871 483.50224,3.9399871 C487.42966,11.7948258 482.245466,56.3317613 422.62724,109.98031 L479.574821,125.689987 C482.952402,126.946761 485.073208,130.40289 484.601918,134.016116" id="Fill-7062" fill="#692E19" sketch:type="MSShapeGroup"></path>
            <path d="M0.900164516,134.016116 C1.37145484,137.629342 4.27774516,140.457084 7.89097097,140.849826 C26.0356484,142.734987 65.6240355,139.6716 94.2941968,133.544826 L140.951939,156.873697 C150.691939,146.426761 162.474197,137.943535 175.984519,131.581116 L125.713552,109.98031 L82.5119387,53.425471 C81.5693581,51.9330516 79.9983903,50.9119226 78.1917774,50.6762774 C76.3851645,50.5191806 74.5785516,51.1475677 73.3217774,52.4043419 C71.7508097,53.9753097 71.200971,56.3317613 71.9079065,58.4525677 L86.4393581,102.125471 C51.4853258,66.8572452 26.1141968,33.3956323 15.5101645,2.84030968 C13.9391968,0.640954839 11.2685516,-0.615819355 8.44080968,-0.458722581 C5.69161613,-0.223077419 3.25661613,1.42643871 1.99984194,3.9399871 C-1.92757742,11.7948258 3.25661613,56.3317613 62.8748419,109.98031 L5.92726129,125.689987 C2.54968065,126.946761 0.428874194,130.40289 0.900164516,134.016116" id="Fill-7063" fill="#692E19" sketch:type="MSShapeGroup"></path>
            <path d="M474.784155,174.626418 C474.234316,173.448192 473.134639,172.58416 471.877865,172.348515 C451.298187,169.128031 435.745606,149.255289 406.918348,149.255289 C388.404494,149.255289 368.021187,161.893724 355.728365,171.115305 C333.122139,136.978176 293.211703,117.820224 242.752219,117.820224 C164.282381,117.820224 109.219961,164.163773 109.219961,245.539902 C109.219961,282.14345 120.216735,315.76216 138.51851,342.311515 L126.422058,396.745547 C116.454268,441.580966 148.030719,465.703176 190.046252,478.828611 C212.118348,473.644418 230.969961,430.67845 238.510606,407.113934 C239.610284,407.663773 240.78851,408.056515 241.966735,408.449256 C243.144961,408.056515 244.323187,407.663773 245.422865,407.192482 C252.96351,430.835547 271.893671,474.03716 293.965768,478.915015 C313.186558,471.335095 371.697252,455.586144 358.61109,396.666998 L346.671735,342.861353 C365.130606,316.23345 376.284477,282.379095 376.284477,245.539902 C376.284477,236.192644 375.483284,227.316676 374.053703,218.864869 C428.063574,226.028482 459.914945,203.155192 474.627058,178.239644 C475.333994,177.139966 475.412542,175.804644 474.784155,174.626418" id="Fill-7064" fill="#D4A263" sketch:type="MSShapeGroup"></path>
            <path d="M293.964197,478.911087 C277.02131,484.189539 259.889906,487.001571 242.436455,487.001571 C225.839181,487.001571 208.707777,484.62941 190.044681,478.832539 C212.116777,473.648345 230.96839,430.682377 238.509035,407.117861 C239.608713,407.6677 240.786939,408.052587 241.965165,408.453184 C243.14339,408.052587 244.321616,407.6677 245.421294,407.19641 C252.961939,430.839474 271.8921,474.041087 293.964197,478.911087" id="Fill-7065" fill="#EDBC7C" sketch:type="MSShapeGroup"></path>
            <path d="M324.427618,219.968474 C317.923811,219.968474 312.64536,214.690023 312.64536,208.186216 C312.64536,203.457603 315.449537,199.404506 319.471215,197.5272 C317.295424,196.867394 315.033231,196.403958 312.64536,196.403958 C299.629892,196.403958 289.080844,206.953006 289.080844,219.968474 C289.080844,232.983942 299.629892,243.53299 312.64536,243.53299 C325.660827,243.53299 336.209876,232.983942 336.209876,219.968474 C336.209876,217.580603 335.74644,215.31841 335.086634,213.142619 C333.209327,217.164297 329.156231,219.968474 324.427618,219.968474" id="Fill-7066" fill="#3E3E3F" sketch:type="MSShapeGroup"></path>
            <path d="M242.750648,408.164126 C242.483584,408.258384 242.232229,408.360497 241.965165,408.454755 C240.786939,408.054158 239.608713,407.669271 238.509035,407.119432 C230.96839,430.683948 212.116777,473.642061 190.044681,478.83411 C208.707777,484.623126 225.839181,487.003142 242.436455,487.003142 C242.538568,487.003142 242.648535,486.987432 242.750648,486.987432 L242.750648,408.164126 Z" id="Fill-7067" fill="#F4D0A1" sketch:type="MSShapeGroup"></path>
            <path d="M129.961448,170.708424 C117.9514,161.486844 97.9058516,149.25686 78.5829484,149.25686 C49.7556903,149.25686 34.2031097,169.129602 13.6234323,172.350085 C12.3666581,172.585731 11.2669806,173.449763 10.7171419,174.627989 C10.0887548,175.806215 10.1751581,177.141537 10.8742387,178.241215 C25.6491903,203.251021 57.0606903,226.147876 111.471158,218.717198 C110.033723,227.192569 109.216819,236.099956 109.216819,245.541473 C109.216819,282.145021 120.213594,315.763731 138.515368,342.313085 L126.418916,396.747118 C116.458981,441.582537 148.035432,465.704747 190.04311,478.830182 C212.115206,473.645989 230.966819,430.680021 238.507465,407.115505 C239.607142,407.665344 240.785368,408.058085 241.963594,408.450827 C242.238513,408.364424 242.482013,408.254456 242.749077,408.160198 L242.749077,117.821795 C193.082932,117.821795 152.850448,136.437763 129.961448,170.708424" id="Fill-7068" fill="#EDBC7C" sketch:type="MSShapeGroup"></path>
            <path d="M183.040521,219.968474 C176.536715,219.968474 171.258263,214.690023 171.258263,208.186216 C171.258263,203.457603 174.06244,199.404506 178.084118,197.5272 C175.908327,196.867394 173.646134,196.403958 171.258263,196.403958 C158.242795,196.403958 147.693747,206.953006 147.693747,219.968474 C147.693747,232.983942 158.242795,243.53299 171.258263,243.53299 C184.273731,243.53299 194.822779,232.983942 194.822779,219.968474 C194.822779,217.580603 194.359344,215.31841 193.699537,213.142619 C191.822231,217.164297 187.769134,219.968474 183.040521,219.968474" id="Fill-7069" fill="#3E3E3F" sketch:type="MSShapeGroup"></path>
            <path d="M293.33581,369.819945 C282.260487,387.179139 266.236616,399.668332 245.421294,407.208977 C244.321616,407.680268 243.14339,408.07301 241.965165,408.465752 C240.786939,408.07301 239.608713,407.680268 238.509035,407.130429 C217.693713,399.668332 201.669842,387.179139 190.515971,369.819945 C187.452584,365.028494 187.216939,358.901719 189.966132,353.796074 C192.715326,348.768977 197.978068,345.627042 203.790648,345.627042 L280.139681,345.627042 C285.873713,345.627042 291.136455,348.768977 293.885648,353.796074 C296.71339,358.901719 296.477745,365.028494 293.33581,369.819945" id="Fill-7070" fill="#3E3E3F" sketch:type="MSShapeGroup"></path>
            <path d="M203.791434,345.624685 C197.978853,345.624685 192.716111,348.766621 189.966918,353.793718 C187.217724,358.899363 187.453369,365.026137 190.516756,369.817589 C201.670627,387.176782 217.694498,399.665976 238.501966,407.128073 L238.509821,407.120218 C239.609498,407.662202 240.787724,408.054944 241.96595,408.45554 C242.233015,408.361282 242.484369,408.259169 242.751434,408.164911 L242.751434,345.624685 L203.791434,345.624685 Z" id="Fill-7071" fill="#5B5C5F" sketch:type="MSShapeGroup"></path>
        </g>
    </g>
</svg>