<?xml version="1.0" encoding="UTF-8" standalone="no"?>
<svg width="60px" height="60px" viewBox="0 0 60 60" version="1.1" xmlns="http://www.w3.org/2000/svg" xmlns:xlink="http://www.w3.org/1999/xlink" xmlns:sketch="http://www.bohemiancoding.com/sketch/ns">
    <!-- Generator: Sketch 3.2.1 (9971) - http://www.bohemiancoding.com/sketch -->
    <title>Group</title>
    <desc>Created with Sketch.</desc>
    <defs></defs>
    <g id="Page-1" stroke="none" stroke-width="1" fill="none" fill-rule="evenodd" sketch:type="MSPage">
        <g id="Icons" sketch:type="MSLayerGroup" transform="translate(0.000000, -2422.000000)">
            <g id="Group" transform="translate(0.000000, 2422.000000)" sketch:type="MSShapeGroup">
                <path d="M42.2244375,24.2436563 C42.8000625,22.2008438 43.761,20.0220938 42.187875,17.5405313 C38.3169375,11.4017813 6.720375,11.3539688 2.812875,17.5405313 C1.2444375,20.0145938 2.186625,22.1549063 2.775375,24.2436563 C0.9969375,27.9842813 0.000375,33.3945938 0.000375,41.2499063 C0.000375,54.1939688 9.555375,59.9999063 22.500375,59.9999063 C35.4444375,59.9999063 45.000375,54.1939688 45.000375,41.2499063 C45.000375,33.3945938 44.002875,27.9842813 42.2244375,24.2436563" id="Fill-5891" fill="#F0F1F1"></path>
                <path d="M2.8125,17.540625 C1.2440625,20.0146875 2.1871875,22.155 2.775,24.24375 C0.9975,27.984375 0,33.3946875 0,41.25 C0,54.1940625 9.5559375,60 22.5,60 L22.5,12.91875 C13.633125,12.9140625 4.7653125,14.44875 2.8125,17.540625" id="Fill-5892" fill="#FFFFFF"></path>
                <path d="M3.75,22.5 C3.75,22.5 1.875,35.625 9.375,39.375 C9.375,39.375 15,36.5625 17.8125,36.5625 C20.625,36.5625 22.5,38.4375 22.5,38.4375 C22.5,38.4375 24.375,36.5625 27.1875,36.5625 C30,36.5625 35.625,39.375 35.625,39.375 C43.125,35.625 41.25,22.5 41.25,22.5 C28.7503125,17.5003125 16.2496875,17.5003125 3.75,22.5" id="Fill-5893" fill="#F89392"></path>
                <path d="M3.75,22.5 C3.75,22.5 1.875,35.625 9.375,39.375 C9.375,39.375 15,36.5625 17.8125,36.5625 C20.625,36.5625 22.5,38.4375 22.5,38.4375 L22.5,18.75 C16.2496875,18.75 10.0003125,19.9996875 3.75,22.5" id="Fill-5894" fill="#F8B4B4"></path>
                <path d="M58.125,33.31875 C57.571875,33 56.934375,32.8125 56.25,32.8125 C55.509375,32.8125 54.815625,33.028125 54.234375,33.403125 C51.440625,26.325 47.8875,21.61875 42.759375,18.740625 C42.61875,18.328125 42.43125,17.925 42.1875,17.540625 C38.540625,11.75625 10.284375,11.38125 3.759375,16.528125 C3.928125,14.11875 5.83125,0 28.125,0 C41.175,0 57.946875,6.496875 58.125,33.31875" id="Fill-5895" fill="#DF2C2C"></path>
                <path d="M22.5,0.337875 C5.5003125,2.4913125 3.9121875,14.3394375 3.759375,16.5285 C6.819375,14.1144375 14.660625,12.915375 22.5,12.919125 L22.5,0.337875 Z" id="Fill-5896" fill="#FA5655"></path>
                <path d="M60,36.5625 C60,38.634375 58.321875,40.3125 56.25,40.3125 C54.178125,40.3125 52.5,38.634375 52.5,36.5625 C52.5,34.4878125 54.19125,32.8125 56.25,32.8125 C58.2496875,32.8125 60,34.4296875 60,36.5625" id="Fill-5897" fill="#FFFFFF"></path>
                <path d="M22.5,41.25 C22.5,41.25 18.75,45 15,45 C15.9375,46.875 18.75,48.75 22.5,48.75 C26.25,48.75 29.0625,46.875 30,45 C26.25,45 22.5,41.25 22.5,41.25" id="Fill-5898" fill="#F89392"></path>
                <path d="M33.6275625,24.50925 C33.367875,24.4305 33.097875,24.3751875 32.812875,24.3751875 C31.2594375,24.3751875 30.000375,25.63425 30.000375,27.1876875 C30.000375,28.741125 31.2594375,30.0001875 32.812875,30.0001875 C34.3663125,30.0001875 35.625375,28.741125 35.625375,27.1876875 C35.625375,26.90175 35.5700625,26.63175 35.490375,26.3720625 C34.41225,28.6876875 31.3081875,25.58925 33.6275625,24.50925" id="Fill-5899" fill="#3E3E3F"></path>
                <path d="M13.0025625,24.50925 C12.742875,24.4305 12.472875,24.3751875 12.187875,24.3751875 C10.6344375,24.3751875 9.375375,25.63425 9.375375,27.1876875 C9.375375,28.741125 10.6344375,30.0001875 12.187875,30.0001875 C13.7413125,30.0001875 15.000375,28.741125 15.000375,27.1876875 C15.000375,26.90175 14.9450625,26.63175 14.865375,26.3720625 C13.78725,28.6876875 10.6831875,25.58925 13.0025625,24.50925" id="Fill-5900" fill="#3E3E3F"></path>
                <path d="M28.125,34.21875 C28.125,36.5484375 25.606875,38.4375 22.5,38.4375 C19.393125,38.4375 16.875,36.5484375 16.875,34.21875 C16.875,31.8890625 19.393125,30 22.5,30 C25.606875,30 28.125,31.8890625 28.125,34.21875" id="Fill-5901" fill="#F89392"></path>
            </g>
        </g>
    </g>
</svg>