<?xml version="1.0" encoding="UTF-8" standalone="no"?>
<svg width="435px" height="387px" viewBox="0 0 435 387" version="1.1" xmlns="http://www.w3.org/2000/svg" xmlns:xlink="http://www.w3.org/1999/xlink" xmlns:sketch="http://www.bohemiancoding.com/sketch/ns">
    <!-- Generator: Sketch 3.2 (9961) - http://www.bohemiancoding.com/sketch -->
    <title>Group</title>
    <desc>Created with Sketch.</desc>
    <defs></defs>
    <g id="Page-1" stroke="none" stroke-width="1" fill="none" fill-rule="evenodd" sketch:type="MSPage">
        <g id="Icons" sketch:type="MSLayerGroup" transform="translate(0.000000, -831.000000)">
            <g id="Group" transform="translate(0.000000, 831.000000)" sketch:type="MSShapeGroup">
                <path d="M217,387 L54,332.6 L54,115 L217,169.4 L217,387 Z" id="Fill-2385" fill="#D4A263"></path>
                <path d="M163.5,224 L0,169.5 L54.5,115 L218,169.5 L163.5,224 Z" id="Fill-2386" fill="#F4D0A1"></path>
                <path d="M217,387 L380,332.6 L380,115 L217,169.4 L217,387 Z" id="Fill-2387" fill="#A97A45"></path>
                <path d="M271.5,224 L435,169.5 L380.5,115 L217,169.5 L271.5,224 Z" id="Fill-2388" fill="#F4D0A1"></path>
                <path d="M54,115.5 L217,170 L380,115.5 L217,61 L54,115.5 Z" id="Fill-2389" fill="#8E6134"></path>
                <path d="M54.5,115 L0,60.8823529 L163.5,0 L218,60.8823529 L54.5,115 Z" id="Fill-2390" fill="#EDBC7C"></path>
                <path d="M380.5,115 L435,60.8823529 L271.5,0 L217,60.8823529 L380.5,115 Z" id="Fill-2391" fill="#EDBC7C"></path>
                <path d="M54,115.5 L217,61 L217,170 L54,115.5 Z" id="Fill-2392" fill="#A97A45"></path>
            </g>
        </g>
    </g>
</svg>